{"title":"Eat Pray Love - Mangia Prega Ama (2010) Director's Cut.DVDrip.Xv","uid":11965368,"size":2319168300,"categoryP":"video","categoryS":"movies","magnet":"?xt=urn:btih:fb7666df260d3425e62ce7be69089697541be585&amp;dn=Eat+Pray+Love+-+Mangia+Prega+Ama+%282010%29+Director%27s+Cut.DVDrip.Xv&amp;tr=udp%3A%2F%2Ftracker.openbittorrent.com%3A80&amp;tr=udp%3A%2F%2Fopen.demonii.com%3A1337&amp;tr=udp%3A%2F%2Ftracker.coppersurfer.tk%3A6969&amp;tr=udp%3A%2F%2Fexodus.desync.com%3A6969","seeders":4,"leechers":1,"uploader":"robbyrs4","files":4,"time":1432654947,"description":"Eat Pray Love - Mangia Prega Ama (2010) Director's Cut.DVDrip.XviD - Italian English.Ac3.5.1.Sub.ita.MIRCrew\n\n[center]\n\n[color=red][b][img]http://s19.postimg.org/9qdjr7p77/Original_release_2.png[/img]\n\n[u]NO FOUND ONLY ORIGINAL RELEASE[/u]\n\nMangia Prega Ama - Eat Pray Love (2010) Director's Cut\n\n[img]http://s11.postimg.org/ogjls5meb/newproject.png[/img]\n\n\n[URL=http://www.imdb.com/title/tt0879870/][IMG]http://www.userlogos.org/files/logos/Sucka/imdb_new.png[/IMG][/URL]  \n\n[img]http://s19.postimg.org/vz5tzn42b/1_scheda.png[/img]\n\nTitolo originale \tEat Pray Love\nLingua originale \tinglese\nPaese di produzione \tStati Uniti\nAnno \t2010\nDurata \t133 min (versione cinematografica) 143 min (versione Director's Cut)\nGenere \tcommedia drammatica, romantico\nRegia \tRyan Murphy\nSoggetto \tElizabeth Gilbert\nSceneggiatura \tRyan Murphy, Jennifer Salt\nCasa di produzione \tColumbia Pictures, Plan B Entertainment, Red Om Films, Syzygy Productions\nDistribuzione (Italia) \tSony Pictures\nFotografia \tRobert Richardson\nMontaggio \tBradley Buecker\nMusiche \tDario Marianelli\nScenografia \tBill Groom\n\n[img]http://s19.postimg.org/q8fnlww2b/1_cast.png[/img]\n\n\n\n    Julia Roberts: Elizabeth Gilbert\n    James Franco: David Piccolo\n    Javier Bardem: Felipe\n    Billy Crudup: Stephen\n    Richard Jenkins: Richard\n    Viola Davis: Delia Shiraz\n    Mike O'Malley: Andy Shiraz\n    David Lyons: Ian\n    Luca Argentero: Giovanni\n    Andrea Di Stefano: Giulio\n    I. Gusti Ayu Puspawati: Nyomo\n    Hadi Subiyanto: Ketut Liyer\n    A. Jay Radcliff: Andre\n    Ashlie Atkinson: libraia\n    Gita Reddy: il Guru\n\n\n   \n[img]http://s19.postimg.org/okgi79i6r/1_trama.png[/img]. \n\nElizabeth Gilbert ha una vita apparentemente perfetta: un solido matrimonio, una bella casa e un buon lavoro. Ma tutto questo sembra non bastarle per essere felice, sente un desiderio interiore di allontanarsi da tutto. Dopo tre anni dal difficile divorzio dal marito Stephen e da una tormentata storia d'amore con David, Elizabeth decide di lasciare tutto, compresa la sua amica Delia, per intraprendere un viaggio intorno al mondo.........\n\n[img]http://s19.postimg.org/fzn6g380j/1_story.png[/img]\n\nA married woman realizes how unhappy her marriage really is, and that her life needs to go in a different direction. After a painful divorce, she takes off on a round-the-world journey to &quot;find herself&quot;..................\n &lt;a href=&quot;\nhttp://s19.postimg.org/qa842v4yb/vlcsnap_2015_05_26_15h37m12s241.png[/img]&quot; rel=&quot;nofollow&quot; target=&quot;_NEW&quot;&gt;\nhttp://s19.postimg.org/qa842v4yb/vlcsnap_2015_05_26_15h37m12s241.png[/img]&lt;/a&gt; &lt;a href=&quot;\nhttp://s19.postimg.org/ad9c65ck3/vlcsnap_2015_05_26_15h37m21s63.png[/img]&quot; rel=&quot;nofollow&quot; target=&quot;_NEW&quot;&gt;\nhttp://s19.postimg.org/ad9c65ck3/vlcsnap_2015_05_26_15h37m21s63.png[/img]&lt;/a&gt; &lt;a href=&quot;\nhttp://s19.postimg.org/okz0usp8z/vlcsnap_2015_05_26_15h37m49s87.png[/img]&quot; rel=&quot;nofollow&quot; target=&quot;_NEW&quot;&gt;\nhttp://s19.postimg.org/okz0usp8z/vlcsnap_2015_05_26_15h37m49s87.png[/img]&lt;/a&gt;\n\n[IMG]http://img153.imageshack.us/img153/3158/restateinseedblood.gif[/img]\n\n\n[img]http://imgur.com/lvhU6.gif[/img]\n\n\n[img]http://s19.postimg.org/a2jaz9qvn/1_dati.png[/img]\n\n\n[spoiler]\nGeneral\nComplete name                            : Mangia Prega Ama - Eat Pray Love (2010) Director's Cut.Ita.Eng.Sub.Ita.Eng.MIRCrewMangia Prega Ama - Eat Pray Love (2010) Director's Cut.Ita.Eng.Sub.Ita.Eng.MIRCrew.avi\nFormat                                   : AVI\nFormat/Info                              : Audio Video Interleave\nFormat profile                           : OpenDML\nFile size                                : 2.16 GiB\nDuration                                 : 2h 19mn\nOverall bit rate                         : 2 213 Kbps\nWriting application                      : VirtualDubMod 1.5.10.2 (build 2540/release)\nWriting library                          : VirtualDubMod build 2540/release\n\nVideo\nID                                       : 0\nFormat                                   : MPEG-4 Visual\nFormat profile                           : Simple@L3\nFormat settings, BVOP                    : No\nFormat settings, QPel                    : No\nFormat settings, GMC                     : No warppoints\nFormat settings, Matrix                  : Default (H.263)\nCodec ID                                 : XVID\nCodec ID/Hint                            : XviD\nDuration                                 : 2h 19mn\nBit rate                                 : 1 298 Kbps\nWidth                                    : 688 pixels\nHeight                                   : 360 pixels\nDisplay aspect ratio                     : 1.905\nOriginal display aspect ratio            : 1.904\nFrame rate                               : 25.000 fps\nColor space                              : YUV\nChroma subsampling                       : 4:2:0\nBit depth                                : 8 bits\nScan type                                : Progressive\nCompression mode                         : Lossy\nBits/(Pixel*Frame)                       : 0.210\nStream size                              : 1.27 GiB (59%)\nWriting library                          : XviD 65\n\nAudio #1\nID                                       : 1\nFormat                                   : AC-3\nFormat/Info                              : Audio Coding 3\nMode extension                           : CM (complete main)\nCodec ID                                 : 2000\nDuration                                 : 2h 19mn\nBit rate mode                            : Constant\nBit rate                                 : 448 Kbps\nChannel(s)                               : 6 channels\nChannel positions                        : Front: L C R, Side: L R, LFE\nSampling rate                            : 48.0 KHz\nBit depth                                : 16 bits\nCompression mode                         : Lossy\nStream size                              : 448 MiB (20%)\nAlignment                                : Split accross interleaves\nInterleave, duration                     : 40 ms (1.00 video frame)\nInterleave, preload duration             : 500 ms\n\nAudio #2\nID                                       : 2\nFormat                                   : AC-3\nFormat/Info                              : Audio Coding 3\nMode extension                           : CM (complete main)\nCodec ID                                 : 2000\nDuration                                 : 2h 19mn\nBit rate mode                            : Constant\nBit rate                                 : 448 Kbps\nChannel(s)                               : 6 channels\nChannel positions                        : Front: L C R, Side: L R, LFE\nSampling rate                            : 48.0 KHz\nBit depth                                : 16 bits\nCompression mode                         : Lossy\nStream size                              : 448 MiB (20%)\nAlignment                                : Split accross interleaves\nInterleave, duration                     : 40 ms (1.00 video frame)\nInterleave, preload duration             : 500 ms\n\n\n[/spoiler]\n\n[/color][/b][/center]","torrent":{"xt":"urn:btih:fb7666df260d3425e62ce7be69089697541be585","amp;dn":"Eat+Pray+Love+-+Mangia+Prega+Ama+%282010%29+Director%27s+Cut.DVDrip.Xv","amp;tr":["udp%3A%2F%2Ftracker.openbittorrent.com%3A80","udp%3A%2F%2Fopen.demonii.com%3A1337","udp%3A%2F%2Ftracker.coppersurfer.tk%3A6969","udp%3A%2F%2Fexodus.desync.com%3A6969"],"infoHash":"fb7666df260d3425e62ce7be69089697541be585","infoHashBuffer":{"type":"Buffer","data":[251,118,102,223,38,13,52,37,230,44,231,190,105,8,150,151,84,27,229,133]},"announce":[],"urlList":[]}}